# AST/ASF file generated using VICON BodyLanguage
# -----------------------------------------------
:version 1.10
:name VICON
:units
  mass 1.0
  length 0.45
  angle deg
:documentation
   .ast/.asf automatically generated from VICON data using
   VICON BodyBuilder and BodyLanguage model FoxedUp or BRILLIANT.MOD
:root
   order TX TY TZ RX RY RZ
   axis XYZ
   position 0 0 0  
   orientation 0 0 0 
:bonedata
  begin
     id 1 
     name lhipjoint
     direction 0.606768 -0.715223 0.346827 
     length 2.41543 
     axis 0 0 0  XYZ
  end
  begin
     id 2 
     name lfemur
     direction 0.34202 -0.939693 0  
     length 7.2778  
     axis 0 0 20  XYZ
    dof rx ry rz
    limits (-160.0 20.0)
           (-70.0 70.0)
           (-60.0 70.0)
  end
  begin
     id 3 
     name ltibia
     direction 0.34202 -0.939693 0   
     length 7.61811   
     axis 0 0 20   XYZ
    dof rx
    limits (-10.0 170.0)
  end
  begin
     id 4 
     name lfoot
     direction 0.0823924 -0.226371 0.97055   
     length 2.33618   
     axis -90 7.62852e-016 20   XYZ
    dof rx rz
    limits (-45.0 90.0)
           (-70.0 20.0)
  end
  begin
     id 5 
     name ltoes
     direction 1.53554e-011 -4.21934e-011 1   
     length 1.17015   
     axis -90 7.62852e-016 20   XYZ
    dof rx
    limits (-90.0 20.0)
  end
  begin
     id 6 
     name rhipjoint
     direction -0.6077 -0.714582 0.346516   
     length 2.4176  
     axis 0 0 0  XYZ 
  end
  begin
     id 7 
     name rfemur
     direction -0.34202 -0.939693 0   
     length 7.28127   
     axis 0 0 -20   XYZ
    dof rx ry rz
    limits (-160.0 20.0)
           (-70.0 70.0)
           (-70.0 60.0)
  end
  begin
     id 8 
     name rtibia
     direction -0.34202 -0.939693 0   
     length 7.77648   
     axis 0 0 -20   XYZ
    dof rx
    limits (-10.0 170.0)
 end
 begin
     id 9 
     name rfoot
     direction -0.0809463 -0.222398 0.97159   
     length 2.37533  
     axis -90 -7.62852e-016 -20   XYZ
    dof rx rz
    limits (-45.0 90.0)
           (-20.0 70.0)
  end
  begin
     id 10 
     name rtoes
     direction -1.53568e-011 -4.21714e-011 1   
     length 1.18972   
     axis -90 -7.62852e-016 -20   XYZ
    dof rx
    limits (-90.0 20.0)
  end
  begin
     id 11 
     name lowerback
     direction 0.010968 0.991932 -0.126297   
     length 2.21698   
     axis 0 0 0   XYZ
    dof rx ry rz
    limits (-20.0 45.0)
           (-30.0 30.0)
           (-30.0 30.0)
  end
  begin
     id 12 
     name upperback
     direction 0.0167007 0.997503 -0.0686276   
     length 2.22371   
     axis 0 0 0   XYZ
    dof rx ry rz
    limits (-20.0 45.0)
           (-30.0 30.0)
           (-30.0 30.0)
  end
  begin
     id 13 
     name thorax
     direction 0.0111721 0.999885 -0.0102878   
     length 2.25242   
     axis 0 0 0   XYZ
    dof rx ry rz
    limits (-20.0 45.0)
           (-30.0 30.0)
           (-30.0 30.0)
  end
  begin
     id 14 
     name lowerneck
     direction -0.0120265 0.990428 0.137508   
     length 1.57674   
     axis 0 0 0   XYZ
    dof rx ry rz
    limits (-20.0 45.0)
           (-30.0 30.0)
           (-30.0 30.0)
  end
  begin
     id 15 
     name upperneck
     direction 0.0175669 0.998907 0.0433089   
     length 1.5618   
     axis 0 0 0   XYZ
    dof rx ry rz
    limits (-20.0 45.0)
           (-30.0 30.0)
           (-30.0 30.0)
  end
  begin
     id 16
     name head
     direction 0.00754609 0.99997 0.00185367  
     length 1.60579  
     axis 0 0 0   XYZ
    dof rx ry rz
    limits (-20.0 45.0)
           (-30.0 30.0)
           (-30.0 30.0)
  end
  begin
     id 17 
     name lclavicle
     direction 0.885866 0.429166 -0.176231  
     length 3.44967  
     axis 0 0 0   XYZ
    dof ry rz
    limits (-20.0 10.0)
           (0.0 20.0)
  end
  begin
     id 18 
     name lhumerus
     direction 1 -4.48973e-011 -1.90255e-027   
     length 5.20607   
     axis 180 -30 -90   XYZ
    dof rx ry rz
    limits (-60.0 90.0)
           (-90.0 90.0)
           (-90.0 90.0)
  end
  begin
     id 19
     name lradius
     direction 1 -4.48956e-011 9.87925e-027   
     length 3.39961   
     axis 180 -30 -90   XYZ
    dof rx
    limits (-10.0 170.0)
  end
  begin
     id 20
     name lwrist
     direction 1 -4.48985e-011 1.73247e-026   
     length 1.6998   
     axis -9.60847e-015 90 90   XYZ
    dof ry
    limits (-180.0 0.0)
 end
  begin
     id 21 
     name lhand
     direction 1 -4.48798e-011 3.46119e-026   
     length 0.519693   
     axis -2.21073e-014 90 90   XYZ
    dof rx rz
    limits (-90.0 90.0)
           (-45.0 45.0)
  end
  begin
     id 22 
     name lfingers
     direction 1 -4.48938e-011 6.92797e-026   
     length 0.41899   
     axis -4.42155e-014 90 90   XYZ
    dof rx
    limits (0.0 90.0)
  end
  begin
     id 23
     name lthumb
     direction 0.707107 -6.34952e-011 0.707107   
     length 0.601588   
     axis -90 45 6.0103e-014   XYZ
    dof rx rz
    limits (-45.0 45.0)
           (-45.0 45.0)
  end
  begin
     id 24 
     name rclavicle
     direction -0.866736 0.456792 -0.200276   
     length 3.45032  
     axis 0 0 0   XYZ 
    dof ry rz
    limits (-10.0 20.0)
           (-20.0 0.0)
  end
  begin
     id 25 
     name rhumerus
     direction -1 -4.4897e-011 8.65094e-028  
     length 5.32214   
     axis 180 30 90   XYZ
    dof rx ry rz
    limits (-90.0 60.0)
           (-90.0 90.0)
           (-90.0 90.0)
  end
  begin
     id 26 
     name rradius
     direction -1 -4.48987e-011 1.08427e-026   
     length 3.51208   
     axis 180 30 90   XYZ
    dof rx
    limits (-10.0 170.0)
  end
  begin
     id 27 
     name rwrist
     direction -1 -4.48961e-011 1.73222e-026   
     length 1.75604   
     axis -9.60847e-015 -90 -90   XYZ
    dof ry
    limits (-180.0 0.0)
  end
  begin
     id 28
     name rhand
     direction -1 -4.48895e-011 3.46314e-026   
     length 0.586681   
     axis -2.21073e-014 -90 -90   XYZ
    dof rx rz
    limits (-90.0 90.0)
           (-45.0 45.0)
  end
  begin
     id 29
     name rfingers
     direction -1 -4.48968e-011 6.92916e-026   
     length 0.472997   
     axis -4.42155e-014 -90 -90   XYZ
    dof rx
    limits (0.0 90.0)
  end
  begin
     id 30
     name rthumb
     direction -0.707107 -6.34848e-011 0.707107   
     length 0.679133   
     axis -90 -45 -6.0103e-014   XYZ
    dof rx rz
    limits (-45.0 45.0)
           (-45.0 45.0)
  end
:hierarchy
  begin
    root lhipjoint rhipjoint lowerback
    lhipjoint lfemur
    lfemur ltibia
    ltibia lfoot
    lfoot ltoes
    rhipjoint rfemur
    rfemur rtibia
    rtibia rfoot
    rfoot rtoes
    lowerback upperback
    upperback thorax
    thorax lowerneck lclavicle rclavicle
    lowerneck upperneck
    upperneck head
    lclavicle lhumerus
    lhumerus lradius
    lradius lwrist
    lwrist lhand lthumb
    lhand lfingers
    rclavicle rhumerus
    rhumerus rradius
    rradius rwrist
    rwrist rhand rthumb
    rhand rfingers
  end

#!OML:ASF H:\Dans Jumps\Project 1\Capture day 1\Session 1\subject.ASF
:FULLY-SPECIFIED
:DEGREES
1
root 0.5599 17.5509 -14.1748 6.28551 -1.45385 -1.60119
lowerback -1.68253 -0.2952 -0.0491607
upperback 3.17699 -0.449969 1.51894
thorax 4.22853 -0.252967 1.57017
lowerneck -13.9691 -0.27439 -2.7944
upperneck 28.0963 -0.364465 2.37904
head 11.4526 -0.168986 1.30524
rclavicle -1.19271e-015 9.93923e-015
rhumerus -22.8946 -17.768 -79.7339
rradius 22.5031
rwrist 35.5471
rhand -17.4109 -26.0639
rfingers 7.12502
rthumb 8.83881 -55.8588
lclavicle -1.19271e-015 9.93923e-015
lhumerus -19.8407 5.04424 85.2443
lradius 17.4563
lwrist -1.81566
lhand -23.494 -2.50743
lfingers 7.12502
lthumb 2.96607 27.4517
rfemur -13.2801 -1.8585 18.9917
rtibia 20.9022
rfoot -12.9944 -2.9787
rtoes 6.69426
lfemur -12.6875 7.60465 -18.2041
ltibia 19.5974
lfoot -11.155 4.85337
ltoes 0.518618
2
root 0.558062 17.551 -14.1728 6.30592 -1.46073 -1.61084
lowerback -1.7039 -0.289804 -0.0518628
upperback 3.16154 -0.442915 1.52661
thorax 4.2245 -0.249603 1.5799
lowerneck -13.8835 -0.325 -2.88348
upperneck 27.9403 -0.439439 2.46669
head 11.378 -0.201024 1.34039
rclavicle 6.75868e-015 -3.97569e-015
rhumerus -22.8944 -17.8196 -79.7064
rradius 22.4757
rwrist 35.6026
rhand -17.3486 -26.0838
rfingers 7.12502
rthumb 8.89897 -55.8762
lclavicle 6.75868e-015 -3.97569e-015
lhumerus -19.8541 5.03745 85.2748
lradius 17.447
lwrist -1.82997
lhand -23.4879 -2.62353
lfingers 7.12502
lthumb 2.97192 27.3355
rfemur -13.2836 -1.84467 19.0108
rtibia 20.8664
rfoot -12.9745 -2.99552
rtoes 6.61107
lfemur -12.7137 7.60625 -18.1886
ltibia 19.6188
lfoot -11.1614 4.8664
ltoes 0.514711
3
root 0.556796 17.5513 -14.1699 6.30819 -1.44282 -1.63842
lowerback -1.74098 -0.296037 -0.0222733
upperback 3.18039 -0.453096 1.53046
thorax 4.26524 -0.253991 1.56664
lowerneck -13.9143 -0.332976 -2.81863
upperneck 27.8445 -0.46326 2.45701
head 11.348 -0.205595 1.32134
rclavicle 4.82053e-015 -2.26615e-014
rhumerus -22.8563 -17.8713 -79.7153
rradius 22.4561
rwrist 35.6502
rhand -17.3941 -26.0181
rfingers 7.12502
rthumb 8.85501 -55.8123
lclavicle 4.82053e-015 -2.26615e-014
lhumerus -19.8147 5.04266 85.2917
lradius 17.4399
lwrist -1.88353
lhand -23.5709 -2.58836
lfingers 7.12502
lthumb 2.89172 27.3718
rfemur -13.2668 -1.85968 19.046
rtibia 20.8568
rfoot -12.9765 -2.99339
rtoes 6.66482
lfemur -12.7004 7.58834 -18.1497
ltibia 19.6103
lfoot -11.1664 4.8699
ltoes 0.537617
4
root 0.555803 17.5514 -14.1672 6.31395 -1.44894 -1.61925
lowerback -1.75067 -0.292826 -0.0417064
upperback 3.16153 -0.447693 1.52562
thorax 4.2511 -0.251722 1.57277
lowerneck -13.8622 -0.359906 -2.83664
upperneck 27.7646 -0.509822 2.49924
head 11.3085 -0.223233 1.33247
rclavicle -2.48481e-016 -1.76918e-014
rhumerus -22.8673 -17.9534 -79.6747
rradius 22.4033
rwrist 35.7402
rhand -17.3442 -26.0414
rfingers 7.12502
rthumb 8.90319 -55.8336
lclavicle -2.48481e-016 -1.76918e-014
lhumerus -19.8347 5.042 85.3111
lradius 17.4068
lwrist -1.83844
lhand -23.5868 -2.66348
lfingers 7.12502
lthumb 2.87645 27.2969
rfemur -13.2578 -1.88303 19.0284
rtibia 20.8444
rfoot -12.9786 -2.96236
rtoes 6.63184
lfemur -12.6949 7.60048 -18.17
ltibia 19.6055
lfoot -11.1693 4.87592
ltoes 0.471755
5
root 0.554635 17.5515 -14.1645 6.31988 -1.44686 -1.6212
lowerback -1.77063 -0.292516 -0.0401678
upperback 3.15618 -0.447445 1.52594
thorax 4.25685 -0.25155 1.57219
lowerneck -13.8285 -0.386222 -2.85114
upperneck 27.669 -0.555329 2.54054
head 11.2667 -0.24003 1.34267
rclavicle -2.78299e-015 -1.43125e-014
rhumerus -22.8582 -18.0188 -79.6528
rradius 22.3651
rwrist 35.8091
rhand -17.3278 -26.0407
rfingers 7.12502
rthumb 8.91903 -55.8322
lclavicle -2.78299e-015 -1.43125e-014
lhumerus -19.8389 5.03792 85.3316
lradius 17.3835
lwrist -1.81704
lhand -23.6283 -2.71121
lfingers 7.12502
lthumb 2.83637 27.2497
rfemur -13.2494 -1.89719 19.0351
rtibia 20.836
rfoot -12.9835 -2.95024
rtoes 6.61804
lfemur -12.6852 7.60264 -18.1639
ltibia 19.5929
lfoot -11.1698 4.87877
ltoes 0.439804
6
root 0.553538 17.5517 -14.1617 6.32388 -1.44282 -1.62076
lowerback -1.78945 -0.293171 -0.0397177
upperback 3.1519 -0.44842 1.52552
thorax 4.26311 -0.252014 1.57138
lowerneck -13.8003 -0.411406 -2.86564
upperneck 27.5822 -0.598842 2.58093
head 11.2295 -0.256083 1.35293
rclavicle -9.44227e-015 -1.51076e-014
rhumerus -22.8468 -18.0833 -79.6314
rradius 22.3257
rwrist 35.879
rhand -17.3207 -26.0448
rfingers 7.12502
rthumb 8.92587 -55.836
lclavicle -9.44227e-015 -1.51076e-014
lhumerus -19.8438 5.03743 85.3495
lradius 17.3559
lwrist -1.79617
lhand -23.6669 -2.75508
lfingers 7.12502
lthumb 2.79903 27.2063
rfemur -13.2406 -1.9133 19.0387
rtibia 20.8333
rfoot -12.9939 -2.93814
rtoes 6.61083
lfemur -12.6715 7.60601 -18.1605
ltibia 19.5774
lfoot -11.1707 4.87781
ltoes 0.405718
7
root 0.552467 17.5518 -14.159 6.32665 -1.43781 -1.61934
lowerback -1.80772 -0.294646 -0.0400784
upperback 3.1487 -0.450488 1.52558
thorax 4.27022 -0.253065 1.57147
lowerneck -13.7733 -0.436761 -2.88707
upperneck 27.5007 -0.641259 2.62312
head 11.1946 -0.27219 1.36526
rclavicle -3.8266e-015 1.11319e-014
rhumerus -22.832 -18.1454 -79.6104
rradius 22.2862
rwrist 35.9462
rhand -17.3193 -26.0546
rfingers 7.12502
rthumb 8.92722 -55.8457
lclavicle -3.8266e-015 1.11319e-014
lhumerus -19.8507 5.04434 85.3645
lradius 17.329
lwrist -1.78629
lhand -23.6898 -2.78081
lfingers 7.12502
lthumb 2.77698 27.1809
rfemur -13.2268 -1.93046 19.0413
rtibia 20.8241
rfoot -13.0021 -2.92675
rtoes 6.60329
lfemur -12.6586 7.61031 -18.1582
ltibia 19.5656
lfoot -11.1741 4.87425
ltoes 0.376244
